<svg width="560" height="420" viewBox="0 0 560 420" fill="none" xmlns="http://www.w3.org/2000/svg">
  <rect width="560" height="420" fill="#1D1D1D"/>
  <circle cx="280" cy="206" r="94" fill="#D7D7D5"/>
  <path d="M186 210C240 178 305 176 374 210" stroke="#F3F3F0" stroke-width="8" stroke-linecap="round"/>
  <path d="M280 112C226 112 184 153 184 207C184 248 211 284 249 297L243 333L284 309L322 333L315 296C352 282 376 247 376 207C376 153 334 112 280 112Z" fill="#F3F3F0"/>
  <path d="M238 218C254 238 271 249 289 250C316 252 335 227 345 206" stroke="#1D1D1D" stroke-width="14" stroke-linecap="round"/>
  <text x="32" y="382" fill="#F4F4F0" font-family="Inter, Arial" font-size="22" font-weight="900">Github Preview</text>
</svg>
